<svg xmlns="http://www.w3.org/2000/svg" width="1240" height="840" viewBox="0 0 1240 840" font-family="Arial, sans-serif"><defs><pattern id="grid" width="24" height="24" patternUnits="userSpaceOnUse"><circle cx="1" cy="1" r="1" fill="#3a4657"/></pattern><marker id="arrow" viewBox="0 0 10 10" refX="9" refY="5" markerWidth="6" markerHeight="6" orient="auto-start-reverse"><path d="M0 0 10 5 0 10" fill="#91a6bb"/></marker></defs><rect width="100%" height="100%" fill="#121b28"/><rect width="100%" height="100%" fill="url(#grid)"/><text x="50" y="43" fill="#ff9770" font-size="16" font-weight="700" letter-spacing="2">n8n / AUTOMATION WORKFLOW</text><text x="50" y="88" fill="#f4f6fa" font-size="32" font-weight="700">Gemini Gmail assistant</text><text x="50" y="121" fill="#a8b9ce" font-size="18">Natural-language requests, session memory, and an email tool.</text><path d="M310 255 C355 255 655 255 700 255" fill="none" stroke="#7496a4" stroke-width="3"  marker-end="url(#arrow)"/><path d="M215 510 C215 410 815 430 815 330" fill="none" stroke="#9e82db" stroke-width="3" stroke-dasharray="7 7" marker-end="url(#arrow)"/><path d="M985 510 C985 410 815 430 815 330" fill="none" stroke="#9e82db" stroke-width="3" stroke-dasharray="7 7" marker-end="url(#arrow)"/><path d="M595 510 C595 410 815 430 815 330" fill="none" stroke="#9e82db" stroke-width="3" stroke-dasharray="7 7" marker-end="url(#arrow)"/><g transform="translate(80 180)"><rect width="230" height="150" rx="18" fill="#202c3d" stroke="#465870" stroke-width="1.5"/><rect x="16" y="16" width="42" height="42" rx="12" fill="#e78440"/><text x="37" y="45" text-anchor="middle" font-size="25" font-weight="700" fill="white">↯</text><text x="72" y="42" fill="#a8b9ce" font-size="17" font-weight="600">Trigger</text><text x="17" y="84" fill="#f4f6fa" font-size="18" font-weight="600"><tspan x="17" dy="0">When chat message</tspan><tspan x="17" dy="24">received</tspan></text></g><g transform="translate(700 180)"><rect width="230" height="150" rx="18" fill="#202c3d" stroke="#465870" stroke-width="1.5"/><rect x="16" y="16" width="42" height="42" rx="12" fill="#8b6be8"/><text x="37" y="45" text-anchor="middle" font-size="25" font-weight="700" fill="white">✦</text><text x="72" y="42" fill="#a8b9ce" font-size="17" font-weight="600">AI</text><text x="17" y="84" fill="#f4f6fa" font-size="18" font-weight="600"><tspan x="17" dy="0">Gemini Email</tspan><tspan x="17" dy="24">Assistant</tspan></text></g><g transform="translate(100 510)"><rect width="230" height="150" rx="18" fill="#202c3d" stroke="#465870" stroke-width="1.5"/><rect x="16" y="16" width="42" height="42" rx="12" fill="#8b6be8"/><text x="37" y="45" text-anchor="middle" font-size="25" font-weight="700" fill="white">✦</text><text x="72" y="42" fill="#a8b9ce" font-size="17" font-weight="600">Gemini</text><text x="17" y="84" fill="#f4f6fa" font-size="18" font-weight="600"><tspan x="17" dy="0">Google Gemini Chat</tspan><tspan x="17" dy="24">Model</tspan></text></g><g transform="translate(480 510)"><rect width="230" height="150" rx="18" fill="#202c3d" stroke="#465870" stroke-width="1.5"/><rect x="16" y="16" width="42" height="42" rx="12" fill="#418cca"/><text x="37" y="45" text-anchor="middle" font-size="25" font-weight="700" fill="white">≋</text><text x="72" y="42" fill="#a8b9ce" font-size="17" font-weight="600">Memory</text><text x="17" y="84" fill="#f4f6fa" font-size="18" font-weight="600"><tspan x="17" dy="0">Simple Memory</tspan></text></g><g transform="translate(870 510)"><rect width="230" height="150" rx="18" fill="#202c3d" stroke="#465870" stroke-width="1.5"/><rect x="16" y="16" width="42" height="42" rx="12" fill="#d95745"/><text x="37" y="45" text-anchor="middle" font-size="25" font-weight="700" fill="white">M</text><text x="72" y="42" fill="#a8b9ce" font-size="17" font-weight="600">Gmail</text><text x="17" y="84" fill="#f4f6fa" font-size="18" font-weight="600"><tspan x="17" dy="0">Gmail Send Email</tspan></text></g><text x="50" y="808" fill="#8ea0b8" font-size="15">Exported workflow structure · Solid: workflow steps · Dashed: AI connections</text></svg>