<svg xmlns="http://www.w3.org/2000/svg" width="1240" height="840" viewBox="0 0 1240 840" font-family="Arial, sans-serif"><defs><pattern id="grid" width="24" height="24" patternUnits="userSpaceOnUse"><circle cx="1" cy="1" r="1" fill="#3a4657"/></pattern><marker id="arrow" viewBox="0 0 10 10" refX="9" refY="5" markerWidth="6" markerHeight="6" orient="auto-start-reverse"><path d="M0 0 10 5 0 10" fill="#91a6bb"/></marker></defs><rect width="100%" height="100%" fill="#121b28"/><rect width="100%" height="100%" fill="url(#grid)"/><text x="50" y="43" fill="#ff9770" font-size="16" font-weight="700" letter-spacing="2">n8n / AUTOMATION WORKFLOW</text><text x="50" y="88" fill="#f4f6fa" font-size="32" font-weight="700">01 / Independent search scheduling</text><text x="50" y="121" fill="#a8b9ce" font-size="18">Two-minute ticks check an eight-hour search gate; manual runs bypass the gate.</text><path d="M880 575 C925 575 905 575 950 575" fill="none" stroke="#7496a4" stroke-width="3"  marker-end="url(#arrow)"/><path d="M280 255 C325 255 305 255 350 255" fill="none" stroke="#7496a4" stroke-width="3"  marker-end="url(#arrow)"/><path d="M580 255 C625 255 605 255 650 255" fill="none" stroke="#7496a4" stroke-width="3"  marker-end="url(#arrow)"/><path d="M880 255 C925 255 905 575 950 575" fill="none" stroke="#7496a4" stroke-width="3"  marker-end="url(#arrow)"/><g transform="translate(50 180)"><rect width="230" height="150" rx="18" fill="#202c3d" stroke="#465870" stroke-width="1.5"/><rect x="16" y="16" width="42" height="42" rx="12" fill="#e78440"/><text x="37" y="45" text-anchor="middle" font-size="25" font-weight="700" fill="white">↯</text><text x="72" y="42" fill="#a8b9ce" font-size="17" font-weight="600">Trigger</text><text x="17" y="84" fill="#f4f6fa" font-size="18" font-weight="600"><tspan x="17" dy="0">Scan Google Sheets</tspan><tspan x="17" dy="24">Every 2 Minutes</tspan></text></g><g transform="translate(350 180)"><rect width="230" height="150" rx="18" fill="#202c3d" stroke="#465870" stroke-width="1.5"/><rect x="16" y="16" width="42" height="42" rx="12" fill="#e78440"/><text x="37" y="45" text-anchor="middle" font-size="25" font-weight="700" fill="white">{}</text><text x="72" y="42" fill="#a8b9ce" font-size="17" font-weight="600">Code</text><text x="17" y="84" fill="#f4f6fa" font-size="18" font-weight="600"><tspan x="17" dy="0">Decide Whether To</tspan><tspan x="17" dy="24">Search Jobs</tspan></text></g><g transform="translate(650 180)"><rect width="230" height="150" rx="18" fill="#202c3d" stroke="#465870" stroke-width="1.5"/><rect x="16" y="16" width="42" height="42" rx="12" fill="#e78440"/><text x="37" y="45" text-anchor="middle" font-size="25" font-weight="700" fill="white">?</text><text x="72" y="42" fill="#a8b9ce" font-size="17" font-weight="600">Condition</text><text x="17" y="84" fill="#f4f6fa" font-size="18" font-weight="600"><tspan x="17" dy="0">IF Automatic Job</tspan><tspan x="17" dy="24">Search Due</tspan></text></g><g transform="translate(650 500)"><rect width="230" height="150" rx="18" fill="#202c3d" stroke="#465870" stroke-width="1.5"/><rect x="16" y="16" width="42" height="42" rx="12" fill="#e78440"/><text x="37" y="45" text-anchor="middle" font-size="25" font-weight="700" fill="white">↯</text><text x="72" y="42" fill="#a8b9ce" font-size="17" font-weight="600">Trigger</text><text x="17" y="84" fill="#f4f6fa" font-size="18" font-weight="600"><tspan x="17" dy="0">Manual Run</tspan></text></g><g transform="translate(950 500)"><rect width="230" height="150" rx="18" fill="#202c3d" stroke="#465870" stroke-width="1.5"/><rect x="16" y="16" width="42" height="42" rx="12" fill="#418cca"/><text x="37" y="45" text-anchor="middle" font-size="25" font-weight="700" fill="white">↗</text><text x="72" y="42" fill="#a8b9ce" font-size="17" font-weight="600">HTTP</text><text x="17" y="84" fill="#f4f6fa" font-size="18" font-weight="600"><tspan x="17" dy="0">Fetch Free Remote</tspan><tspan x="17" dy="24">Jobs</tspan></text></g><text x="50" y="808" fill="#8ea0b8" font-size="15">Exported workflow structure · Solid: workflow steps · Dashed: AI connections</text></svg>